<svg class="type-svg extrusion-svg" viewBox="-77.925 -106.249 308.402 189.306" role="img" aria-label="EXTRUDE&#10;MY TYPE rendered as SVG extruded typography" shape-rendering="geometricPrecision" style="background-color: rgb(255, 255, 255);" xmlns="http://www.w3.org/2000/svg"><rect x="-77.925" y="-106.249" width="308.402" height="189.30599999999998" fill="#ffffff"/><g class="extruded-text depth-sorted-faces" data-depth="64" data-depth-scale="1" data-random-depth="false" data-min-depth="32" data-max-depth="96" data-camera-x="-0.15" data-camera-y="-0.05" data-camera-z="9"><g class="glyph-group" data-glyph-index="6" data-line-index="0" data-glyph-x-sort="175.5" data-glyph-depth-sort="0" data-rotate-x="-29.452" data-rotate-y="21.253" data-rotate-z="6.528"><path class="side-face" data-face-kind="side" data-glyph-index="6" data-line-index="0" data-depth-sort="-30.894" data-face-zone="inner-right" data-edge-index="2" data-visibility-score="419.404" d="M183.528 -6.23L170.964 -7.621L157.302 -42.466L170.235 -41.135Z" fill="#ff3b30" stroke="#000000" stroke-width="1.5" stroke-linejoin="round" stroke-linecap="round" vector-effect="non-scaling-stroke"/><path class="side-face" data-face-kind="side" data-glyph-index="6" data-line-index="0" data-depth-sort="-25.802" data-face-zone="inner-right" data-edge-index="6" data-visibility-score="396.269" d="M185.42 -15.443L173.63 -16.722L160.097 -51.755L172.232 -50.532Z" fill="#ffcc00" stroke="#000000" stroke-width="1.5" stroke-linejoin="round" stroke-linecap="round" vector-effect="non-scaling-stroke"/><path class="side-face" data-face-kind="side" data-glyph-index="6" data-line-index="0" data-depth-sort="-22.195" data-face-zone="outer-left" data-edge-index="11" data-visibility-score="560.458" d="M169.053 -26.503L162.185 -3.251L148.237 -37.955L155.437 -61.684Z" fill="#00c2a8" stroke="#000000" stroke-width="1.5" stroke-linejoin="round" stroke-linecap="round" vector-effect="non-scaling-stroke"/><path class="side-face" data-face-kind="side" data-glyph-index="6" data-line-index="0" data-depth-sort="-19.569" data-face-zone="inner-left" data-edge-index="10" data-visibility-score="656.755" d="M188.477 -24.437L169.053 -26.503L155.437 -61.684L175.428 -59.714Z" fill="#ffcc00" stroke="#000000" stroke-width="1.5" stroke-linejoin="round" stroke-linecap="round" vector-effect="non-scaling-stroke"/><path class="front-face" data-face-kind="front" data-glyph-index="6" data-line-index="0" data-depth-sort="0" d="M162.185 -3.251L182.027 -1.03L183.528 -6.23L170.964 -7.621L172.131 -11.603L183.936 -10.308L185.42 -15.443L173.63 -16.722L174.771 -20.615L186.994 -19.3L188.477 -24.437L169.053 -26.503Z" fill="#0053ff" fill-rule="evenodd" stroke="#000000" stroke-width="1.5" stroke-linejoin="round" stroke-linecap="round" vector-effect="non-scaling-stroke"/></g><g class="glyph-group" data-glyph-index="12" data-line-index="1" data-glyph-x-sort="159.354" data-glyph-depth-sort="0" data-rotate-x="-27.264" data-rotate-y="20.486" data-rotate-z="-6.099"><path class="side-face" data-face-kind="side" data-glyph-index="12" data-line-index="1" data-depth-sort="-31.297" data-face-zone="inner-right" data-edge-index="2" data-visibility-score="362.561" d="M168.983 31.613L156.4 32.829L135.687 6.057L148.631 4.723Z" fill="#ff3b30" stroke="#000000" stroke-width="1.5" stroke-linejoin="round" stroke-linecap="round" vector-effect="non-scaling-stroke"/><path class="side-face" data-face-kind="side" data-glyph-index="12" data-line-index="1" data-depth-sort="-26.525" data-face-zone="inner-right" data-edge-index="6" data-visibility-score="343.491" d="M168.654 21.842L156.85 23.008L136.212 -4.013L148.353 -5.292Z" fill="#00c2a8" stroke="#000000" stroke-width="1.5" stroke-linejoin="round" stroke-linecap="round" vector-effect="non-scaling-stroke"/><path class="side-face" data-face-kind="side" data-glyph-index="12" data-line-index="1" data-depth-sort="-23.002" data-face-zone="outer-left" data-edge-index="11" data-visibility-score="556.142" d="M150.07 14.008L148.87 39.113L127.906 12.552L129.301 -13.189Z" fill="#ffcc00" stroke="#000000" stroke-width="1.5" stroke-linejoin="round" stroke-linecap="round" vector-effect="non-scaling-stroke"/><path class="side-face" data-face-kind="side" data-glyph-index="12" data-line-index="1" data-depth-sort="-20.65" data-face-zone="inner-left" data-edge-index="10" data-visibility-score="570.827" d="M169.512 12.044L150.07 14.008L129.301 -13.189L149.297 -15.34Z" fill="#ffcc00" stroke="#000000" stroke-width="1.5" stroke-linejoin="round" stroke-linecap="round" vector-effect="non-scaling-stroke"/><path class="front-face" data-face-kind="front" data-glyph-index="12" data-line-index="1" data-depth-sort="0" d="M148.87 39.113L168.746 37.217L168.983 31.613L156.4 32.829L156.597 28.532L168.419 27.378L168.654 21.842L156.85 23.008L157.042 18.806L169.278 17.586L169.512 12.044L150.07 14.008Z" fill="#0053ff" fill-rule="evenodd" stroke="#000000" stroke-width="1.5" stroke-linejoin="round" stroke-linecap="round" vector-effect="non-scaling-stroke"/></g><g class="glyph-group" data-glyph-index="5" data-line-index="0" data-glyph-x-sort="148.785" data-glyph-depth-sort="0" data-rotate-x="-4.437" data-rotate-y="41.333" data-rotate-z="4.515"><path class="side-face" data-face-kind="side" data-glyph-index="5" data-line-index="0" data-depth-sort="-25.838" data-face-zone="outer-right" data-edge-index="5" data-visibility-score="19.309" d="M149.549 -21.334L149.968 -21.177L150.354 -20.985L150.707 -20.757L151.027 -20.493L151.314 -20.193L151.569 -19.855L151.791 -19.48L151.981 -19.068L152.14 -18.617L152.267 -18.128L152.362 -17.6L152.427 -17.033L152.461 -16.427L152.465 -15.78L152.438 -15.094L152.382 -14.366L152.296 -13.598L152.186 -12.832L152.057 -12.11L151.909 -11.431L151.742 -10.797L111.346 -19.536L111.518 -20.19L111.67 -20.889L111.802 -21.632L111.917 -22.422L112.007 -23.212L112.067 -23.961L112.096 -24.668L112.095 -25.333L112.063 -25.957L112 -26.54L111.906 -27.082L111.78 -27.585L111.622 -28.048L111.431 -28.472L111.209 -28.856L110.953 -29.202L110.665 -29.51L110.343 -29.781L109.988 -30.013L109.6 -30.209L109.177 -30.369Z" fill="#ffcc00" stroke="#000000" stroke-width="1.5" stroke-linejoin="round" stroke-linecap="round" vector-effect="non-scaling-stroke"/><path class="side-face" data-face-kind="side" data-glyph-index="5" data-line-index="0" data-depth-sort="-25.235" data-face-zone="outer-bottom" data-edge-index="26" data-visibility-score="14.123" d="M151.742 -10.797L151.555 -10.206L151.348 -9.657L151.12 -9.152L150.871 -8.689L150.601 -8.268L150.31 -7.889L149.996 -7.552L149.661 -7.255L149.302 -7L148.921 -6.785L148.517 -6.61L148.088 -6.475L147.636 -6.379L147.16 -6.323L146.659 -6.305L146.133 -6.326L144.158 -6.473L103.677 -15.053L105.669 -14.911L106.199 -14.892L106.705 -14.912L107.186 -14.972L107.642 -15.072L108.074 -15.213L108.483 -15.395L108.869 -15.618L109.231 -15.883L109.571 -16.189L109.889 -16.538L110.185 -16.929L110.459 -17.363L110.711 -17.841L110.943 -18.362L111.155 -18.927L111.346 -19.536Z" fill="#00c2a8" stroke="#000000" stroke-width="1.5" stroke-linejoin="round" stroke-linecap="round" vector-effect="non-scaling-stroke"/><path class="side-face" data-face-kind="side" data-glyph-index="5" data-line-index="0" data-depth-sort="-23.156" data-face-zone="inner-left" data-edge-index="4" data-visibility-score="0.814" d="M149.095 -21.455L149.549 -21.334L109.177 -30.369L108.72 -30.492Z" fill="#00c2a8" stroke="#000000" stroke-width="1.5" stroke-linejoin="round" stroke-linecap="round" vector-effect="non-scaling-stroke"/><path class="side-face" data-face-kind="side" data-glyph-index="5" data-line-index="0" data-depth-sort="-20.722" data-face-zone="inner-left" data-edge-index="39" data-visibility-score="20.122" d="M150.92 -27.366L149.919 -27.54L148.861 -27.644L140.949 -28.144L100.531 -37.334L108.509 -36.858L109.576 -36.756L110.586 -36.581Z" fill="#ffcc00" stroke="#000000" stroke-width="1.5" stroke-linejoin="round" stroke-linecap="round" vector-effect="non-scaling-stroke"/><path class="side-face" data-face-kind="side" data-glyph-index="5" data-line-index="0" data-depth-sort="-15.817" data-face-zone="outer-left" data-edge-index="42" data-visibility-score="1134.685" d="M140.949 -28.144L137.453 -0.879L96.891 -9.268L100.531 -37.334Z" fill="#ffcc00" stroke="#000000" stroke-width="1.5" stroke-linejoin="round" stroke-linecap="round" vector-effect="non-scaling-stroke"/><path class="front-face" data-face-kind="front" data-glyph-index="5" data-line-index="0" data-depth-sort="0" d="M137.453 -0.879L145.541 -0.254C152.684 0.299 157.335 -4.32 158.458 -13.126C159.585 -21.966 156.131 -27.185 148.861 -27.644L140.949 -28.144ZM144.158 -6.473L146.111 -21.726L148.087 -21.595C151.684 -21.357 152.967 -18.855 152.296 -13.598C151.624 -8.339 149.729 -6.059 146.133 -6.326Z" fill="#0053ff" fill-rule="evenodd" stroke="#000000" stroke-width="1.5" stroke-linejoin="round" stroke-linecap="round" vector-effect="non-scaling-stroke"/></g><g class="glyph-group" data-glyph-index="11" data-line-index="1" data-glyph-x-sort="134.491" data-glyph-depth-sort="0" data-rotate-x="-7.4" data-rotate-y="40.409" data-rotate-z="6.184"><path class="side-face" data-face-kind="side" data-glyph-index="11" data-line-index="1" data-depth-sort="-25.403" data-face-zone="outer-right" data-edge-index="5" data-visibility-score="7.621" d="M136.518 18.138L136.753 18.226L136.974 18.329L137.179 18.448L137.369 18.581L137.542 18.73L137.699 18.893L137.839 19.07L137.962 19.262L138.068 19.469L138.155 19.689L138.224 19.924L138.273 20.172L138.304 20.434L138.315 20.709L138.306 20.997L138.277 21.299L138.226 21.613L138.157 21.925L138.073 22.22L137.974 22.497L98.855 10.252L98.957 9.967L99.044 9.664L99.115 9.343L99.168 9.019L99.2 8.709L99.21 8.412L99.201 8.129L99.172 7.86L99.123 7.605L99.055 7.365L98.968 7.138L98.863 6.927L98.74 6.73L98.599 6.548L98.441 6.381L98.267 6.23L98.076 6.094L97.87 5.973L97.647 5.869L97.41 5.78Z" fill="#ffcc00" stroke="#000000" stroke-width="1.5" stroke-linejoin="round" stroke-linecap="round" vector-effect="non-scaling-stroke"/><path class="side-face" data-face-kind="side" data-glyph-index="11" data-line-index="1" data-depth-sort="-25.119" data-face-zone="outer-bottom" data-edge-index="25" data-visibility-score="7.882" d="M137.974 22.497L137.861 22.756L137.733 22.997L137.592 23.22L137.438 23.426L137.272 23.615L137.094 23.785L136.904 23.938L136.704 24.073L136.493 24.19L136.272 24.29L136.041 24.372L135.802 24.436L135.554 24.482L135.298 24.511L135.035 24.522L134.765 24.515L134.488 24.491L131.651 24.154L92.454 11.995L95.32 12.324L95.599 12.348L95.872 12.353L96.138 12.34L96.397 12.309L96.647 12.259L96.89 12.192L97.123 12.106L97.347 12.003L97.561 11.881L97.765 11.741L97.957 11.582L98.139 11.406L98.308 11.212L98.464 10.999L98.608 10.768L98.739 10.519L98.855 10.252Z" fill="#00c2a8" stroke="#000000" stroke-width="1.5" stroke-linejoin="round" stroke-linecap="round" vector-effect="non-scaling-stroke"/><path class="side-face" data-face-kind="side" data-glyph-index="11" data-line-index="1" data-depth-sort="-23.995" data-face-zone="outer-right" data-edge-index="40" data-visibility-score="3.025" d="M139.583 12.53L138.872 12.317L138.118 12.153L137.322 12.036L98.26 -0.499L99.063 -0.384L99.824 -0.22L100.542 -0.006Z" fill="#00c2a8" stroke="#000000" stroke-width="1.5" stroke-linejoin="round" stroke-linecap="round" vector-effect="non-scaling-stroke"/><path class="side-face" data-face-kind="side" data-glyph-index="11" data-line-index="1" data-depth-sort="-19.177" data-face-zone="inner-left" data-edge-index="43" data-visibility-score="75.269" d="M137.322 12.036L128.067 10.998L88.914 -1.509L98.26 -0.499Z" fill="#00c2a8" stroke="#000000" stroke-width="1.5" stroke-linejoin="round" stroke-linecap="round" vector-effect="non-scaling-stroke"/><path class="side-face" data-face-kind="side" data-glyph-index="11" data-line-index="1" data-depth-sort="-16.692" data-face-zone="outer-left" data-edge-index="44" data-visibility-score="1121.315" d="M128.067 10.998L122.931 37.972L83.557 26.254L88.914 -1.509Z" fill="#ff3b30" stroke="#000000" stroke-width="1.5" stroke-linejoin="round" stroke-linecap="round" vector-effect="non-scaling-stroke"/><path class="front-face" data-face-kind="front" data-glyph-index="11" data-line-index="1" data-depth-sort="0" d="M122.931 37.972L128.882 38.723L130.513 30.139L133.809 30.54C139.264 31.203 143.295 28.045 144.376 22.333C145.464 16.586 142.781 12.649 137.322 12.036L128.067 10.998ZM131.651 24.154L132.888 17.641L135.727 17.969C137.624 18.187 138.632 19.474 138.226 21.613C137.82 23.753 136.354 24.712 134.488 24.491Z" fill="#0053ff" fill-rule="evenodd" stroke="#000000" stroke-width="1.5" stroke-linejoin="round" stroke-linecap="round" vector-effect="non-scaling-stroke"/></g><g class="glyph-group" data-glyph-index="4" data-line-index="0" data-glyph-x-sort="119.554" data-glyph-depth-sort="0" data-rotate-x="-31.276" data-rotate-y="42.934" data-rotate-z="-4.258"><path class="side-face" data-face-kind="side" data-glyph-index="4" data-line-index="0" data-depth-sort="-24.116" data-face-zone="inner-right" data-edge-index="22" data-visibility-score="50.997" d="M126.794 -26.179L121.971 -10.881L121.838 -10.488L121.694 -10.112L121.538 -9.753L121.371 -9.411L121.193 -9.087L121.003 -8.781L120.803 -8.492L120.592 -8.222L120.371 -7.97L120.139 -7.737L119.898 -7.522L119.646 -7.327L119.386 -7.151L119.115 -6.995L118.836 -6.858L118.548 -6.742L118.251 -6.645L117.946 -6.569L117.632 -6.514L117.31 -6.479L77.887 -37.739L78.21 -37.78L78.525 -37.842L78.833 -37.925L79.132 -38.028L79.422 -38.151L79.704 -38.294L79.978 -38.457L80.242 -38.64L80.497 -38.842L80.743 -39.063L80.979 -39.303L81.205 -39.562L81.421 -39.839L81.627 -40.134L81.822 -40.447L82.007 -40.778L82.181 -41.127L82.343 -41.492L82.494 -41.875L82.634 -42.274L87.739 -57.823Z" fill="#ff3b30" stroke="#000000" stroke-width="1.5" stroke-linejoin="round" stroke-linecap="round" vector-effect="non-scaling-stroke"/><path class="side-face" data-face-kind="side" data-glyph-index="4" data-line-index="0" data-depth-sort="-22.081" data-face-zone="inner-left" data-edge-index="43" data-visibility-score="5.457" d="M117.31 -6.479L117 -6.467L116.711 -6.478L116.444 -6.511L116.199 -6.567L115.976 -6.646L115.774 -6.747L115.595 -6.869L76.177 -38.101L76.354 -37.981L76.554 -37.883L76.776 -37.808L77.021 -37.755L77.287 -37.727L77.576 -37.721L77.887 -37.739Z" fill="#ff3b30" stroke="#000000" stroke-width="1.5" stroke-linejoin="round" stroke-linecap="round" vector-effect="non-scaling-stroke"/><path class="side-face" data-face-kind="side" data-glyph-index="4" data-line-index="0" data-depth-sort="-20.261" data-face-zone="outer-right" data-edge-index="21" data-visibility-score="202.326" d="M132.575 -26.667L126.794 -26.179L87.739 -57.823L93.537 -58.426Z" fill="#ff3b30" stroke="#000000" stroke-width="1.5" stroke-linejoin="round" stroke-linecap="round" vector-effect="non-scaling-stroke"/><path class="side-face" data-face-kind="side" data-glyph-index="4" data-line-index="0" data-depth-sort="-16.84" data-face-zone="outer-bottom" data-edge-index="69" data-visibility-score="17.25" d="M109.049 -7.494L108.986 -6.756L108.982 -6.057L109.037 -5.399L109.151 -4.782L109.321 -4.209L109.549 -3.679L109.832 -3.195L110.171 -2.757L110.565 -2.366L71.059 -33.457L70.672 -33.844L70.34 -34.281L70.065 -34.765L69.847 -35.296L69.687 -35.872L69.585 -36.493L69.541 -37.157L69.558 -37.863L69.634 -38.611Z" fill="#00c2a8" stroke="#000000" stroke-width="1.5" stroke-linejoin="round" stroke-linecap="round" vector-effect="non-scaling-stroke"/><path class="side-face" data-face-kind="side" data-glyph-index="4" data-line-index="0" data-depth-sort="-12.233" data-face-zone="outer-left" data-edge-index="65" data-visibility-score="215.259" d="M114.442 -25.135L109.602 -9.936L109.356 -9.086L109.172 -8.271L109.049 -7.494L69.634 -38.611L69.772 -39.398L69.971 -40.225L70.232 -41.089L75.352 -56.535Z" fill="#00c2a8" stroke="#000000" stroke-width="1.5" stroke-linejoin="round" stroke-linecap="round" vector-effect="non-scaling-stroke"/><path class="side-face" data-face-kind="side" data-glyph-index="4" data-line-index="0" data-depth-sort="-9.024" data-face-zone="inner-left" data-edge-index="64" data-visibility-score="198.217" d="M120.145 -25.617L114.442 -25.135L75.352 -56.535L81.07 -57.129Z" fill="#00c2a8" stroke="#000000" stroke-width="1.5" stroke-linejoin="round" stroke-linecap="round" vector-effect="non-scaling-stroke"/><path class="front-face" data-face-kind="front" data-glyph-index="4" data-line-index="0" data-depth-sort="0" d="M115.605 -1.087C121.2 -1.485 125.922 -5.467 127.76 -11.323L132.575 -26.667L126.794 -26.179L121.971 -10.881C121.127 -8.205 119.484 -6.64 117.31 -6.479C115.171 -6.321 114.467 -7.706 115.312 -10.372L120.145 -25.617L114.442 -25.135L109.602 -9.936C107.755 -4.137 110.074 -0.693 115.605 -1.087Z" fill="#0053ff" fill-rule="evenodd" stroke="#000000" stroke-width="1.5" stroke-linejoin="round" stroke-linecap="round" vector-effect="non-scaling-stroke"/></g><g class="glyph-group" data-glyph-index="10" data-line-index="1" data-glyph-x-sort="108.303" data-glyph-depth-sort="0" data-rotate-x="-28.69" data-rotate-y="23.483" data-rotate-z="4.972"><path class="side-face" data-face-kind="side" data-glyph-index="10" data-line-index="1" data-depth-sort="-23.469" data-face-zone="outer-left" data-edge-index="7" data-visibility-score="208.779" d="M99.579 12.505L103.885 28.217L101.215 37.223L82.017 4.84L84.828 -4.363L80.52 -20.346Z" fill="#ffcc00" stroke="#000000" stroke-width="1.5" stroke-linejoin="round" stroke-linecap="round" vector-effect="non-scaling-stroke"/><path class="side-face" data-face-kind="side" data-glyph-index="10" data-line-index="1" data-depth-sort="-23.318" data-face-zone="outer-right" data-edge-index="3" data-visibility-score="239.489" d="M124.154 14.727L116.504 14.035L97.9 -18.918L105.759 -18.272Z" fill="#ffcc00" stroke="#000000" stroke-width="1.5" stroke-linejoin="round" stroke-linecap="round" vector-effect="non-scaling-stroke"/><path class="side-face" data-face-kind="side" data-glyph-index="10" data-line-index="1" data-depth-sort="-22.866" data-face-zone="inner-right" data-edge-index="4" data-visibility-score="388.981" d="M116.504 14.035L109.324 22.212L90.462 -10.527L97.9 -18.918Z" fill="#00c2a8" stroke="#000000" stroke-width="1.5" stroke-linejoin="round" stroke-linecap="round" vector-effect="non-scaling-stroke"/><path class="side-face" data-face-kind="side" data-glyph-index="10" data-line-index="1" data-depth-sort="-15.983" data-face-zone="inner-left" data-edge-index="6" data-visibility-score="236.297" d="M107.162 13.191L99.579 12.505L80.52 -20.346L88.306 -19.706Z" fill="#00c2a8" stroke="#000000" stroke-width="1.5" stroke-linejoin="round" stroke-linecap="round" vector-effect="non-scaling-stroke"/><path class="front-face" data-face-kind="front" data-glyph-index="10" data-line-index="1" data-depth-sort="0" d="M101.215 37.223L108.332 37.913L110.988 28.888L124.154 14.727L116.504 14.035L109.324 22.212L107.162 13.191L99.579 12.505L103.885 28.217Z" fill="#0053ff" fill-rule="evenodd" stroke="#000000" stroke-width="1.5" stroke-linejoin="round" stroke-linecap="round" vector-effect="non-scaling-stroke"/></g><g class="glyph-group" data-glyph-index="3" data-line-index="0" data-glyph-x-sort="92.099" data-glyph-depth-sort="0" data-rotate-x="-8.951" data-rotate-y="23.094" data-rotate-z="-6.769"><path class="side-face" data-face-kind="side" data-glyph-index="3" data-line-index="0" data-depth-sort="-32.301" data-face-zone="outer-right" data-edge-index="42" data-visibility-score="1.325" d="M99.794 -13.129L99.449 -13.206L99.085 -13.263L98.701 -13.298L73.084 -20.895L73.479 -20.86L73.853 -20.802L74.208 -20.723Z" fill="#00c2a8" stroke="#000000" stroke-width="1.5" stroke-linejoin="round" stroke-linecap="round" vector-effect="non-scaling-stroke"/><path class="side-face" data-face-kind="side" data-glyph-index="3" data-line-index="0" data-depth-sort="-31.959" data-face-zone="inner-right" data-edge-index="45" data-visibility-score="2.718" d="M98.701 -13.298L98.298 -13.311L72.668 -20.908L73.084 -20.895Z" fill="#00c2a8" stroke="#000000" stroke-width="1.5" stroke-linejoin="round" stroke-linecap="round" vector-effect="non-scaling-stroke"/><path class="side-face" data-face-kind="side" data-glyph-index="3" data-line-index="0" data-depth-sort="-31.73" data-face-zone="inner-right" data-edge-index="20" data-visibility-score="44.575" d="M95.777 -7.786L95.835 -7.53L95.882 -7.257L95.921 -6.967L96.659 -0.6L70.957 -7.736L70.209 -14.331L70.17 -14.631L70.121 -14.914L70.062 -15.179Z" fill="#ff3b30" stroke="#000000" stroke-width="1.5" stroke-linejoin="round" stroke-linecap="round" vector-effect="non-scaling-stroke"/><path class="side-face" data-face-kind="side" data-glyph-index="3" data-line-index="0" data-depth-sort="-31.111" data-face-zone="outer-bottom" data-edge-index="11" data-visibility-score="3.471" d="M94.688 -9.314L94.867 -9.213L95.031 -9.094L95.178 -8.959L95.311 -8.806L95.43 -8.636L95.535 -8.449L95.628 -8.245L95.708 -8.024L95.777 -7.786L70.062 -15.179L69.992 -15.426L69.91 -15.655L69.815 -15.866L69.707 -16.059L69.585 -16.235L69.449 -16.393L69.297 -16.533L69.129 -16.655L68.944 -16.76Z" fill="#ffcc00" stroke="#000000" stroke-width="1.5" stroke-linejoin="round" stroke-linecap="round" vector-effect="non-scaling-stroke"/><path class="side-face" data-face-kind="side" data-glyph-index="3" data-line-index="0" data-depth-sort="-30.658" data-face-zone="inner-right" data-edge-index="9" data-visibility-score="0.434" d="M94.278 -9.467L94.492 -9.399L94.688 -9.314L68.944 -16.76L68.743 -16.848L68.522 -16.917Z" fill="#ff3b30" stroke="#000000" stroke-width="1.5" stroke-linejoin="round" stroke-linecap="round" vector-effect="non-scaling-stroke"/><path class="side-face" data-face-kind="side" data-glyph-index="3" data-line-index="0" data-depth-sort="-29.548" data-face-zone="outer-right" data-edge-index="9" data-visibility-score="4.308" d="M93.662 -21.352L93.893 -21.271L94.108 -21.172L94.307 -21.057L94.488 -20.925L94.654 -20.777L94.802 -20.611L94.933 -20.428L95.047 -20.228L95.144 -20.011L95.224 -19.777L95.286 -19.525L95.33 -19.257L95.356 -18.971L95.363 -18.693L95.351 -18.424L95.319 -18.165L69.611 -25.93L69.644 -26.199L69.658 -26.477L69.651 -26.765L69.624 -27.062L69.579 -27.34L69.516 -27.6L69.435 -27.842L69.336 -28.067L69.218 -28.274L69.084 -28.463L68.931 -28.635L68.761 -28.788L68.574 -28.925L68.37 -29.043L68.149 -29.145L67.911 -29.229Z" fill="#ff3b30" stroke="#000000" stroke-width="1.5" stroke-linejoin="round" stroke-linecap="round" vector-effect="non-scaling-stroke"/><path class="side-face" data-face-kind="side" data-glyph-index="3" data-line-index="0" data-depth-sort="-29.482" data-face-zone="outer-bottom" data-edge-index="25" data-visibility-score="7.501" d="M95.319 -18.165L95.268 -17.916L95.198 -17.677L95.109 -17.449L95.002 -17.232L94.875 -17.027L94.73 -16.832L94.567 -16.65L94.385 -16.479L94.185 -16.321L93.967 -16.175L93.731 -16.043L93.477 -15.923L93.206 -15.817L92.917 -15.725L92.61 -15.646L92.286 -15.582L91.945 -15.532L88.113 -15.068L62.187 -22.707L66.133 -23.196L66.484 -23.248L66.818 -23.315L67.133 -23.397L67.431 -23.494L67.711 -23.604L67.972 -23.729L68.215 -23.867L68.44 -24.018L68.646 -24.182L68.834 -24.359L69.002 -24.549L69.152 -24.75L69.282 -24.964L69.394 -25.189L69.486 -25.425L69.558 -25.672L69.611 -25.93Z" fill="#ff3b30" stroke="#000000" stroke-width="1.5" stroke-linejoin="round" stroke-linecap="round" vector-effect="non-scaling-stroke"/><path class="side-face" data-face-kind="side" data-glyph-index="3" data-line-index="0" data-depth-sort="-28.679" data-face-zone="outer-right" data-edge-index="80" data-visibility-score="5.168" d="M97.158 -27.397L96.467 -27.559L95.742 -27.675L94.984 -27.743L94.196 -27.762L93.378 -27.731L92.532 -27.65L66.76 -35.75L67.631 -35.836L68.474 -35.87L69.285 -35.852L70.064 -35.783L70.81 -35.665L71.521 -35.498Z" fill="#ff3b30" stroke="#000000" stroke-width="1.5" stroke-linejoin="round" stroke-linecap="round" vector-effect="non-scaling-stroke"/><path class="side-face" data-face-kind="side" data-glyph-index="3" data-line-index="0" data-depth-sort="-25.031" data-face-zone="inner-left" data-edge-index="86" data-visibility-score="136.62" d="M92.532 -27.65L80.422 -26.146L54.294 -34.165L66.76 -35.75Z" fill="#ffcc00" stroke="#000000" stroke-width="1.5" stroke-linejoin="round" stroke-linecap="round" vector-effect="non-scaling-stroke"/><path class="side-face" data-face-kind="side" data-glyph-index="3" data-line-index="0" data-depth-sort="-24.419" data-face-zone="outer-left" data-edge-index="87" data-visibility-score="700.541" d="M80.422 -26.146L81.999 1.116L55.863 -5.93L54.294 -34.165Z" fill="#00c2a8" stroke="#000000" stroke-width="1.5" stroke-linejoin="round" stroke-linecap="round" vector-effect="non-scaling-stroke"/><path class="front-face" data-face-kind="front" data-glyph-index="3" data-line-index="0" data-depth-sort="0" d="M81.999 1.116L89.011 0.295L88.466 -9.028L92.588 -9.521C94.885 -9.795 95.695 -8.96 95.921 -6.967L96.659 -0.6L103.869 -1.444L102.829 -9.11C102.485 -11.831 101.055 -13.293 98.298 -13.311C101.191 -14.67 102.703 -17.301 102.498 -20.735C102.206 -25.63 98.273 -28.363 92.532 -27.65L80.422 -26.146ZM88.113 -15.068L87.767 -20.987L91.597 -21.457C93.927 -21.742 95.24 -20.934 95.356 -18.971C95.468 -17.084 94.277 -15.815 91.945 -15.532Z" fill="#0053ff" fill-rule="evenodd" stroke="#000000" stroke-width="1.5" stroke-linejoin="round" stroke-linecap="round" vector-effect="non-scaling-stroke"/></g><g class="glyph-group" data-glyph-index="9" data-line-index="1" data-glyph-x-sort="82.582" data-glyph-depth-sort="0" data-rotate-x="-31.344" data-rotate-y="22.993" data-rotate-z="-6.399"><path class="side-face" data-face-kind="side" data-glyph-index="9" data-line-index="1" data-depth-sort="-25.124" data-face-zone="outer-left" data-edge-index="7" data-visibility-score="549.369" d="M79.851 19.14L77.625 38.132L52.177 7.669L54.636 -11.723Z" fill="#ff3b30" stroke="#000000" stroke-width="1.5" stroke-linejoin="round" stroke-linecap="round" vector-effect="non-scaling-stroke"/><path class="side-face" data-face-kind="side" data-glyph-index="9" data-line-index="1" data-depth-sort="-18.529" data-face-zone="outer-right" data-edge-index="4" data-visibility-score="735.089" d="M94.926 12.24L73.116 14.581L47.787 -16.308L70.134 -18.902Z" fill="#ff3b30" stroke="#000000" stroke-width="1.5" stroke-linejoin="round" stroke-linecap="round" vector-effect="non-scaling-stroke"/><path class="side-face" data-face-kind="side" data-glyph-index="9" data-line-index="1" data-depth-sort="-15.341" data-face-zone="outer-left" data-edge-index="5" data-visibility-score="155.139" d="M73.116 14.581L72.478 19.921L47.082 -10.857L47.787 -16.308Z" fill="#ff3b30" stroke="#000000" stroke-width="1.5" stroke-linejoin="round" stroke-linecap="round" vector-effect="non-scaling-stroke"/><path class="front-face" data-face-kind="front" data-glyph-index="9" data-line-index="1" data-depth-sort="0" d="M77.625 38.132L84.708 37.416L86.894 18.393L94.322 17.606L94.926 12.24L73.116 14.581L72.478 19.921L79.851 19.14Z" fill="#0053ff" fill-rule="evenodd" stroke="#000000" stroke-width="1.5" stroke-linejoin="round" stroke-linecap="round" vector-effect="non-scaling-stroke"/></g><g class="glyph-group" data-glyph-index="2" data-line-index="0" data-glyph-x-sort="65.891" data-glyph-depth-sort="0" data-rotate-x="-2.635" data-rotate-y="43.208" data-rotate-z="4.256"><path class="side-face" data-face-kind="side" data-glyph-index="2" data-line-index="0" data-depth-sort="-22.835" data-face-zone="outer-right" data-edge-index="4" data-visibility-score="75.546" d="M76.056 -27.071L58.733 -28.12L14.05 -35.164L31.422 -34.157Z" fill="#ffcc00" stroke="#000000" stroke-width="1.5" stroke-linejoin="round" stroke-linecap="round" vector-effect="non-scaling-stroke"/><path class="side-face" data-face-kind="side" data-glyph-index="2" data-line-index="0" data-depth-sort="-20.772" data-face-zone="outer-left" data-edge-index="7" data-visibility-score="972.205" d="M63.918 -21.695L61.644 -0.297L16.866 -6.563L19.226 -28.578Z" fill="#00c2a8" stroke="#000000" stroke-width="1.5" stroke-linejoin="round" stroke-linecap="round" vector-effect="non-scaling-stroke"/><path class="side-face" data-face-kind="side" data-glyph-index="2" data-line-index="0" data-depth-sort="-14.781" data-face-zone="outer-left" data-edge-index="5" data-visibility-score="274.949" d="M58.733 -28.12L58.089 -22.068L13.381 -28.939L14.05 -35.164Z" fill="#ff3b30" stroke="#000000" stroke-width="1.5" stroke-linejoin="round" stroke-linecap="round" vector-effect="non-scaling-stroke"/><path class="front-face" data-face-kind="front" data-glyph-index="2" data-line-index="0" data-depth-sort="0" d="M61.644 -0.297L67.223 0.129L69.502 -21.338L75.407 -20.959L76.056 -27.071L58.733 -28.12L58.089 -22.068L63.918 -21.695Z" fill="#0053ff" fill-rule="evenodd" stroke="#000000" stroke-width="1.5" stroke-linejoin="round" stroke-linecap="round" vector-effect="non-scaling-stroke"/></g><g class="glyph-group" data-glyph-index="8" data-line-index="1" data-glyph-x-sort="48.906" data-glyph-depth-sort="0" data-rotate-x="-2.919" data-rotate-y="43.834" data-rotate-z="-4.584"><path class="side-face" data-face-kind="side" data-glyph-index="8" data-line-index="1" data-depth-sort="-28.919" data-face-zone="outer-right" data-edge-index="3" data-visibility-score="15.489" d="M57.832 11.03L51.907 11.458L5.736 12.181L11.667 11.743Z" fill="#ff3b30" stroke="#000000" stroke-width="1.5" stroke-linejoin="round" stroke-linecap="round" vector-effect="non-scaling-stroke"/><path class="side-face" data-face-kind="side" data-glyph-index="8" data-line-index="1" data-depth-sort="-24.497" data-face-zone="inner-right" data-edge-index="4" data-visibility-score="469.536" d="M51.907 11.458L48.763 21.686L2.592 22.702L5.736 12.181Z" fill="#00c2a8" stroke="#000000" stroke-width="1.5" stroke-linejoin="round" stroke-linecap="round" vector-effect="non-scaling-stroke"/><path class="side-face" data-face-kind="side" data-glyph-index="8" data-line-index="1" data-depth-sort="-18.252" data-face-zone="outer-left" data-edge-index="7" data-visibility-score="630.4" d="M38.861 12.399L46.344 29.181L46.802 39.532L0.632 41.057L0.172 30.409L-7.317 13.143Z" fill="#ff3b30" stroke="#000000" stroke-width="1.5" stroke-linejoin="round" stroke-linecap="round" vector-effect="non-scaling-stroke"/><path class="side-face" data-face-kind="side" data-glyph-index="8" data-line-index="1" data-depth-sort="-16.17" data-face-zone="inner-left" data-edge-index="6" data-visibility-score="15.131" d="M44.696 11.978L38.861 12.399L-7.317 13.143L-1.48 12.713Z" fill="#ffcc00" stroke="#000000" stroke-width="1.5" stroke-linejoin="round" stroke-linecap="round" vector-effect="non-scaling-stroke"/><path class="front-face" data-face-kind="front" data-glyph-index="8" data-line-index="1" data-depth-sort="0" d="M46.802 39.532L52.273 39.226L51.812 28.842L57.832 11.03L51.907 11.458L48.763 21.686L44.696 11.978L38.861 12.399L46.344 29.181Z" fill="#0053ff" fill-rule="evenodd" stroke="#000000" stroke-width="1.5" stroke-linejoin="round" stroke-linecap="round" vector-effect="non-scaling-stroke"/></g><g class="glyph-group" data-glyph-index="1" data-line-index="0" data-glyph-x-sort="39.195" data-glyph-depth-sort="0" data-rotate-x="-33.053" data-rotate-y="22.497" data-rotate-z="-5.454"><path class="side-face" data-face-kind="side" data-glyph-index="1" data-line-index="0" data-depth-sort="-30.681" data-face-zone="outer-bottom" data-edge-index="2" data-visibility-score="42.198" d="M38.433 -9.091L42.131 -2.476L16.745 -36.453L13.03 -43.141Z" fill="#00c2a8" stroke="#000000" stroke-width="1.5" stroke-linejoin="round" stroke-linecap="round" vector-effect="non-scaling-stroke"/><path class="side-face" data-face-kind="side" data-glyph-index="1" data-line-index="0" data-depth-sort="-24.715" data-face-zone="outer-left" data-edge-index="11" data-visibility-score="688.786" d="M35.144 -13.477L24.432 -0.78L-1.384 -34.547L9.712 -47.567Z" fill="#00c2a8" stroke="#000000" stroke-width="1.5" stroke-linejoin="round" stroke-linecap="round" vector-effect="non-scaling-stroke"/><path class="side-face" data-face-kind="side" data-glyph-index="1" data-line-index="0" data-depth-sort="-21.46" data-face-zone="outer-right" data-edge-index="6" data-visibility-score="300.664" d="M53.858 -26.878L45.731 -26.051L20.677 -60.458L29.003 -61.384Z" fill="#ffcc00" stroke="#000000" stroke-width="1.5" stroke-linejoin="round" stroke-linecap="round" vector-effect="non-scaling-stroke"/><path class="side-face" data-face-kind="side" data-glyph-index="1" data-line-index="0" data-depth-sort="-20.84" data-face-zone="inner-right" data-edge-index="7" data-visibility-score="379.423" d="M45.731 -26.051L40.047 -18.722L14.784 -52.95L20.677 -60.458Z" fill="#ff3b30" stroke="#000000" stroke-width="1.5" stroke-linejoin="round" stroke-linecap="round" vector-effect="non-scaling-stroke"/><path class="side-face" data-face-kind="side" data-glyph-index="1" data-line-index="0" data-depth-sort="-17.753" data-face-zone="outer-left" data-edge-index="10" data-visibility-score="44.061" d="M28.377 -24.286L35.144 -13.477L9.712 -47.567L2.904 -58.483Z" fill="#ffcc00" stroke="#000000" stroke-width="1.5" stroke-linejoin="round" stroke-linecap="round" vector-effect="non-scaling-stroke"/><path class="side-face" data-face-kind="side" data-glyph-index="1" data-line-index="0" data-depth-sort="-14.133" data-face-zone="inner-left" data-edge-index="9" data-visibility-score="294.063" d="M36.362 -25.098L28.377 -24.286L2.904 -58.483L11.082 -59.392Z" fill="#ff3b30" stroke="#000000" stroke-width="1.5" stroke-linejoin="round" stroke-linecap="round" vector-effect="non-scaling-stroke"/><path class="front-face" data-face-kind="front" data-glyph-index="1" data-line-index="0" data-depth-sort="0" d="M24.432 -0.78L32.548 -1.558L38.433 -9.091L42.131 -2.476L50.248 -3.254L43.312 -14.35L53.858 -26.878L45.731 -26.051L40.047 -18.722L36.362 -25.098L28.377 -24.286L35.144 -13.477Z" fill="#0053ff" fill-rule="evenodd" stroke="#000000" stroke-width="1.5" stroke-linejoin="round" stroke-linecap="round" vector-effect="non-scaling-stroke"/></g><g class="glyph-group" data-glyph-index="7" data-line-index="1" data-glyph-x-sort="18.33" data-glyph-depth-sort="0" data-rotate-x="-31.443" data-rotate-y="43.068" data-rotate-z="4.184"><path class="side-face" data-face-kind="side" data-glyph-index="7" data-line-index="1" data-depth-sort="-27.894" data-face-zone="inner-right" data-edge-index="5" data-visibility-score="724.893" d="M24.961 24.622L18.253 37.678L-18.807 1.539L-11.795 -11.707Z" fill="#ff3b30" stroke="#000000" stroke-width="1.5" stroke-linejoin="round" stroke-linecap="round" vector-effect="non-scaling-stroke"/><path class="side-face" data-face-kind="side" data-glyph-index="7" data-line-index="1" data-depth-sort="-22.099" data-face-zone="outer-right" data-edge-index="8" data-visibility-score="240.385" d="M35.599 15.035L28.403 14.422L-8.126 -22.018L-0.907 -21.546Z" fill="#ff3b30" stroke="#000000" stroke-width="1.5" stroke-linejoin="round" stroke-linecap="round" vector-effect="non-scaling-stroke"/><path class="side-face" data-face-kind="side" data-glyph-index="7" data-line-index="1" data-depth-sort="-20.017" data-face-zone="inner-right" data-edge-index="9" data-visibility-score="946.492" d="M28.403 14.422L16.724 28.661L-20.156 -7.488L-8.126 -22.018Z" fill="#ffcc00" stroke="#000000" stroke-width="1.5" stroke-linejoin="round" stroke-linecap="round" vector-effect="non-scaling-stroke"/><path class="side-face" data-face-kind="side" data-glyph-index="7" data-line-index="1" data-depth-sort="-18.471" data-face-zone="outer-bottom" data-edge-index="2" data-visibility-score="588.491" d="M13.243 23.554L10.495 36.805L-26.584 0.815L-23.546 -12.548Z" fill="#ffcc00" stroke="#000000" stroke-width="1.5" stroke-linejoin="round" stroke-linecap="round" vector-effect="non-scaling-stroke"/><path class="side-face" data-face-kind="side" data-glyph-index="7" data-line-index="1" data-depth-sort="-9.079" data-face-zone="outer-left" data-edge-index="12" data-visibility-score="1269.221" d="M13.041 13.115L1.178 35.984L-35.925 0.173L-23.53 -23.024Z" fill="#ff3b30" stroke="#000000" stroke-width="1.5" stroke-linejoin="round" stroke-linecap="round" vector-effect="non-scaling-stroke"/><path class="side-face" data-face-kind="side" data-glyph-index="7" data-line-index="1" data-depth-sort="-7.238" data-face-zone="inner-left" data-edge-index="11" data-visibility-score="233.95" d="M20.11 13.717L13.041 13.115L-23.53 -23.024L-16.443 -22.561Z" fill="#ffcc00" stroke="#000000" stroke-width="1.5" stroke-linejoin="round" stroke-linecap="round" vector-effect="non-scaling-stroke"/><path class="front-face" data-face-kind="front" data-glyph-index="7" data-line-index="1" data-depth-sort="0" d="M1.178 35.984L6.539 36.516L13.243 23.554L10.495 36.805L14.335 37.186L24.961 24.622L18.253 37.678L23.723 38.22L35.599 15.035L28.403 14.422L16.724 28.661L20.11 13.717L13.041 13.115Z" fill="#0053ff" fill-rule="evenodd" stroke="#000000" stroke-width="1.5" stroke-linejoin="round" stroke-linecap="round" vector-effect="non-scaling-stroke"/></g><g class="glyph-group" data-glyph-index="0" data-line-index="0" data-glyph-x-sort="12.831" data-glyph-depth-sort="0" data-rotate-x="-31.996" data-rotate-y="41.611" data-rotate-z="5.813"><path class="side-face" data-face-kind="side" data-glyph-index="0" data-line-index="0" data-depth-sort="-25.888" data-face-zone="inner-right" data-edge-index="2" data-visibility-score="334.188" d="M16.91 -6.838L7.361 -7.818L-27.399 -46.29L-17.798 -45.495Z" fill="#00c2a8" stroke="#000000" stroke-width="1.5" stroke-linejoin="round" stroke-linecap="round" vector-effect="non-scaling-stroke"/><path class="side-face" data-face-kind="side" data-glyph-index="0" data-line-index="0" data-depth-sort="-21.349" data-face-zone="inner-right" data-edge-index="6" data-visibility-score="317.138" d="M21.197 -15.644L12.215 -16.52L-22.33 -55.109L-13.299 -54.408Z" fill="#00c2a8" stroke="#000000" stroke-width="1.5" stroke-linejoin="round" stroke-linecap="round" vector-effect="non-scaling-stroke"/><path class="side-face" data-face-kind="side" data-glyph-index="0" data-line-index="0" data-depth-sort="-14.702" data-face-zone="inner-left" data-edge-index="10" data-visibility-score="526.93" d="M26.35 -24.283L11.535 -25.654L-22.829 -64.249L-7.931 -63.171Z" fill="#00c2a8" stroke="#000000" stroke-width="1.5" stroke-linejoin="round" stroke-linecap="round" vector-effect="non-scaling-stroke"/><path class="side-face" data-face-kind="side" data-glyph-index="0" data-line-index="0" data-depth-sort="-13.376" data-face-zone="outer-left" data-edge-index="11" data-visibility-score="1247.005" d="M11.535 -25.654L-0.892 -3.446L-35.802 -41.744L-22.829 -64.249Z" fill="#ff3b30" stroke="#000000" stroke-width="1.5" stroke-linejoin="round" stroke-linecap="round" vector-effect="non-scaling-stroke"/><path class="front-face" data-face-kind="front" data-glyph-index="0" data-line-index="0" data-depth-sort="0" d="M-0.892 -3.446L14.147 -1.858L16.91 -6.838L7.361 -7.818L9.485 -11.625L18.466 -10.723L21.197 -15.644L12.215 -16.52L14.293 -20.245L23.616 -19.355L26.35 -24.283L11.535 -25.654Z" fill="#0053ff" fill-rule="evenodd" stroke="#000000" stroke-width="1.5" stroke-linejoin="round" stroke-linecap="round" vector-effect="non-scaling-stroke"/></g></g></svg>